HIERARCHY
ROOT Hips
{
 OFFSET 0.000000 0.000000 0.000000
 CHANNELS 6 Xposition Yposition Zposition Yrotation Xrotation Zrotation
 JOINT Chest
 {
  OFFSET 0.000000 9.585900 0.002600
  CHANNELS 3 Yrotation Xrotation Zrotation
  JOINT Chest2
  {
   OFFSET 0.000000 9.601200 -0.005300
   CHANNELS 3 Yrotation Xrotation Zrotation
   JOINT Chest3
   {
    OFFSET 0.000000 9.561800 0.000000
    CHANNELS 3 Yrotation Xrotation Zrotation
    JOINT Chest4
    {
     OFFSET 0.000000 9.552100 0.000000
     CHANNELS 3 Yrotation Xrotation Zrotation
     JOINT Neck
     {
      OFFSET 0.000000 14.453000 0.000000
      CHANNELS 3 Yrotation Xrotation Zrotation
      JOINT Head
      {
       OFFSET 0.000000 8.936500 -0.011300
       CHANNELS 3 Yrotation Xrotation Zrotation
       End Site
       {
        OFFSET 0.000000 17.073600 -0.006000
       }
      }
     }
     JOINT RightCollar
     {
      OFFSET -2.921100 9.558500 0.000000
      CHANNELS 3 Yrotation Xrotation Zrotation
      JOINT RightShoulder
      {
       OFFSET -13.519700 0.000000 0.000000
       CHANNELS 3 Yrotation Xrotation Zrotation
       JOINT RightElbow
       {
        OFFSET 0.000000 -29.696600 0.000000
        CHANNELS 3 Yrotation Xrotation Zrotation
        JOINT RightWrist
        {
         OFFSET 0.000000 -24.004700 0.000000
         CHANNELS 3 Yrotation Xrotation Zrotation
         End Site
         {
          OFFSET 0.000000 -17.728500 0.000000
         }
        }
       }
      }
     }
     JOINT LeftCollar
     {
      OFFSET 2.921100 9.558500 0.000000
      CHANNELS 3 Yrotation Xrotation Zrotation
      JOINT LeftShoulder
      {
       OFFSET 13.519700 0.000000 0.000000
       CHANNELS 3 Yrotation Xrotation Zrotation
       JOINT LeftElbow
       {
        OFFSET 0.000000 -29.696600 0.000000
        CHANNELS 3 Yrotation Xrotation Zrotation
        JOINT LeftWrist
        {
         OFFSET 0.000000 -24.004700 0.000000
         CHANNELS 3 Yrotation Xrotation Zrotation
         End Site
         {
          OFFSET 0.000000 -17.728500 0.000000
         }
        }
       }
      }
     }
    }
   }
  }
 }
 JOINT RightHip
 {
  OFFSET -7.771700 -0.012900 -0.001300
  CHANNELS 3 Yrotation Xrotation Zrotation
  JOINT RightKnee
  {
   OFFSET 0.000000 -40.869800 0.001200
   CHANNELS 3 Yrotation Xrotation Zrotation
   JOINT RightAnkle
   {
    OFFSET 0.000000 -39.717900 0.002100
    CHANNELS 3 Yrotation Xrotation Zrotation
    JOINT RightToe
    {
     OFFSET 0.000000 -4.965400 11.033500
     CHANNELS 3 Yrotation Xrotation Zrotation
     End Site
     {
      OFFSET 0.000000 -1.423100 5.872300
     }
    }
   }
  }
 }
 JOINT LeftHip
 {
  OFFSET 7.771700 -0.012900 -0.001300
  CHANNELS 3 Yrotation Xrotation Zrotation
  JOINT LeftKnee
  {
   OFFSET 0.000000 -40.869800 0.001200
   CHANNELS 3 Yrotation Xrotation Zrotation
   JOINT LeftAnkle
   {
    OFFSET 0.000000 -39.717900 0.002100
    CHANNELS 3 Yrotation Xrotation Zrotation
    JOINT LeftToe
    {
     OFFSET 0.000000 -4.965400 11.033500
     CHANNELS 3 Yrotation Xrotation Zrotation
     End Site
     {
      OFFSET 0.000000 -1.423100 5.872300
     }
    }
   }
  }
 }
}
MOTION
Frames: 15
Frame Time: 0.008333
-48.477430 46.546418 7.115297 177.718445 -32.249544 -2.720054 1.777859 18.378838 1.160346 0.015664 2.205059 0.064800 0.078072 3.600177 0.113948 0.356366 16.360095 0.559312 0.104259 21.952050 -3.145474 0.977725 4.989015 -5.659305 1.279595 1.151969 -0.343507 5.728482 -4.857469 -15.895079 -47.174822 -58.068692 95.716593 -2.416623 2.016343 -19.206386 -0.464119 0.968993 1.024867 -5.367869 -1.952170 12.918281 66.776455 -68.055238 -105.792816 0.407324 11.218615 12.431158 -7.072771 -54.960284 -6.595531 -151.007693 78.923093 -141.700358 -6.428707 -17.864948 -6.530382 -0.984596 -1.482827 -0.560554 2.256259 -56.869130 9.692346 -101.739860 81.604714 -107.257440 2.836530 -4.424865 5.700484 1.330674 0.198132 0.532192
-48.462081 46.545361 7.122198 177.600378 -32.212618 -2.697087 1.866608 18.357134 1.189895 -0.010715 2.223332 0.064204 0.117376 3.572470 0.115001 0.348786 16.384344 0.559831 0.095727 21.902523 -3.137373 0.951235 4.878241 -5.627371 1.285495 1.142039 -0.347236 5.748599 -4.848518 -15.896015 -47.094461 -58.042701 95.625776 -2.401786 2.014101 -19.169281 -0.461596 0.978326 1.025767 -5.343464 -1.931514 12.900916 66.573144 -68.003064 -105.576994 0.351515 11.179027 12.404009 -7.293151 -54.997502 -6.517530 -151.413103 79.040776 -142.067908 -6.494810 -17.604708 -6.616863 -0.930375 -1.514915 -0.594784 2.283132 -56.911673 9.766237 -101.888882 81.604665 -107.361298 2.865312 -4.461456 5.685924 1.311902 0.212466 0.519436
-48.442410 46.546469 7.122507 177.462033 -32.219101 -2.678753 1.948274 18.393356 1.227128 -0.013163 2.224429 0.066763 0.126244 3.576362 0.111683 0.387672 16.355158 0.559553 0.068978 21.877515 -3.120009 0.923667 4.774698 -5.596766 1.285874 1.139197 -0.347075 5.766398 -4.830201 -15.896277 -47.039271 -58.022114 95.564113 -2.382512 2.007407 -19.139926 -0.475756 0.998895 1.039798 -5.318833 -1.943114 12.882578 66.411541 -67.969991 -105.409530 0.314102 11.143390 12.386716 -7.491249 -54.994739 -6.416932 -151.943031 79.160810 -142.564631 -6.546706 -17.339251 -6.678744 -0.887919 -1.552856 -0.635766 2.269790 -56.911317 9.873347 -102.227416 81.624225 -107.635800 2.871031 -4.519008 5.659755 1.313899 0.229800 0.477552
-48.430814 46.544968 7.122272 177.342885 -32.217980 -2.619998 1.993508 18.422814 1.212389 -0.020310 2.225849 0.070085 0.138864 3.582837 0.107128 0.403745 16.364417 0.559023 0.006302 21.812552 -3.072875 0.937447 4.682607 -5.617985 1.297438 1.114435 -0.349427 5.797240 -4.833941 -15.905334 -46.986304 -57.999369 95.506544 -2.347069 1.985985 -19.108549 -0.472151 0.978386 1.044046 -5.267825 -1.888277 12.858618 66.460953 -67.994690 -105.479291 0.319443 11.155750 12.367133 -7.614467 -55.009901 -6.404293 -152.579558 79.277828 -143.172838 -6.604379 -17.113747 -6.721147 -0.834789 -1.558975 -0.669406 2.248262 -56.907733 9.923870 -102.487428 81.653758 -107.884925 2.960141 -4.567086 5.642939 1.243120 0.236273 0.420633
-48.424613 46.539958 7.123508 177.259204 -32.194224 -2.552695 1.930716 18.456587 1.153249 0.029404 2.202783 0.068667 0.147147 3.587668 0.104755 0.370333 16.404074 0.568293 0.023136 21.733166 -3.080156 0.917045 4.597570 -5.596573 1.349634 1.085144 -0.362882 5.837425 -4.874726 -15.937686 -46.967621 -57.997281 95.486078 -2.334990 1.978396 -19.078588 -0.456629 0.938041 1.042895 -5.181713 -1.785542 12.832260 66.695313 -68.032257 -105.729346 0.321017 11.161596 12.345880 -7.712118 -55.052443 -6.438455 -153.271842 79.388330 -143.836588 -6.662115 -16.920114 -6.750444 -0.787119 -1.544604 -0.695411 2.289026 -56.928096 9.911854 -102.602498 81.661586 -108.001182 3.040495 -4.589975 5.664972 1.191566 0.234633 0.386940
-48.420541 46.533993 7.122931 177.175813 -32.172147 -2.482709 1.891794 18.474537 1.097333 0.088038 2.179437 0.067119 0.059362 3.635623 0.112272 0.411993 16.392236 0.561937 0.023721 21.684611 -3.074704 0.895967 4.527379 -5.570812 1.394817 1.064971 -0.376882 5.864100 -4.912719 -15.955579 -46.955243 -57.991515 95.456403 -2.320792 1.974362 -19.037629 -0.429088 0.901225 1.031868 -5.134077 -1.770581 12.817553 66.699539 -68.037888 -105.743293 0.316488 11.161030 12.326416 -7.782537 -55.094418 -6.484635 -154.000491 79.495157 -144.532836 -6.714606 -16.745397 -6.774843 -0.750383 -1.521213 -0.712627 2.327200 -56.946086 9.898420 -102.726690 81.667983 -108.130428 3.120037 -4.613659 5.682461 1.128801 0.233011 0.381311
-48.406004 46.533984 7.111592 177.014651 -32.222277 -2.445684 1.959073 18.551821 1.121564 0.133095 2.163534 0.069118 -0.000712 3.662463 0.113059 0.441574 16.385145 0.560077 0.013606 21.654978 -3.059382 0.874566 4.471298 -5.540975 1.414061 1.066865 -0.375797 5.898871 -4.968734 -15.975587 -46.942337 -57.988028 95.440316 -2.310719 1.974053 -19.015714 -0.390986 0.872292 1.017138 -5.109488 -1.749332 12.817342 66.758575 -68.039064 -105.803877 0.309861 11.176741 12.299745 -7.853569 -55.054040 -6.425539 -154.750493 79.604026 -145.247501 -6.717975 -16.547101 -6.797894 -0.751973 -1.522854 -0.732015 2.308363 -56.897314 10.019985 -103.098488 81.631894 -108.453150 3.162089 -4.693497 5.612559 1.150839 0.248963 0.366529
-48.397042 46.531513 7.101308 176.882634 -32.247658 -2.409216 1.989598 18.604606 1.125459 0.140085 2.166363 0.069640 -0.003695 3.659959 0.112309 0.452979 16.385289 0.560340 0.006094 21.632206 -3.043397 0.857452 4.428066 -5.510414 1.437362 1.062520 -0.376130 5.924869 -5.024192 -15.984528 -46.935071 -57.982704 95.425489 -2.302180 1.984332 -18.992588 -0.398302 0.859509 1.031378 -5.044416 -1.716386 12.807679 66.824799 -68.039040 -105.885474 0.300911 11.162201 12.288075 -7.915102 -55.035895 -6.393389 -155.521301 79.713772 -145.985003 -6.707128 -16.371992 -6.828005 -0.758401 -1.506431 -0.736665 2.304486 -56.873344 10.109833 -103.409924 81.604729 -108.729514 3.193315 -4.755737 5.570012 1.145765 0.260419 0.368750
-48.394102 46.530220 7.086654 176.791224 -32.285145 -2.376307 1.975523 18.667233 1.106564 0.076057 2.190760 0.068231 0.063656 3.636333 0.110653 0.484545 16.380077 0.559704 -0.016123 21.621313 -3.020344 0.863738 4.397799 -5.504963 1.436274 1.063921 -0.363179 5.953656 -5.082591 -15.990999 -46.870310 -57.980775 95.373082 -2.299589 1.971900 -18.981580 -0.426530 0.858034 1.061885 -4.982704 -1.697935 12.796573 66.875464 -68.041981 -105.946340 0.311275 11.132198 12.296568 -7.972718 -55.003703 -6.384996 -156.103133 79.792787 -146.574928 -6.609095 -16.212029 -6.823749 -0.824478 -1.479524 -0.750032 2.335282 -56.838571 10.147067 -103.693108 81.572074 -108.965976 3.186240 -4.797723 5.526341 1.183626 0.259027 0.386251
-48.392004 46.528124 7.071874 176.750580 -32.307610 -2.384372 1.923054 18.709428 1.099847 0.052865 2.198319 0.066505 0.088656 3.630256 0.110930 0.555886 16.365953 0.558649 -0.072275 21.626179 -2.984056 0.907897 4.378874 -5.549701 1.387403 1.074775 -0.333079 6.007916 -5.117530 -16.013811 -46.933028 -57.969640 95.394022 -2.293020 2.020277 -18.945568 -0.483152 0.869231 1.101682 -4.935329 -1.684610 12.800166 66.913111 -68.040448 -105.993180 0.326114 11.098912 12.304016 -8.065749 -54.974618 -6.362235 -156.927449 79.912639 -147.342351 -6.721560 -16.080223 -6.919943 -0.719865 -1.447293 -0.670277 2.230411 -56.811550 10.248037 -103.974263 81.552859 -109.235105 3.253488 -4.865450 5.504384 1.158621 0.275531 0.371405
-48.386483 46.524984 7.058270 176.662856 -32.313084 -2.405514 1.926852 18.725290 1.134026 0.074147 2.196245 0.068111 0.067070 3.634151 0.109950 0.489174 16.385926 0.558129 -0.012869 21.604243 -2.989377 0.860475 4.365823 -5.449572 1.458925 1.054151 -0.339331 6.071724 -5.146618 -16.038216 -47.003094 -57.952777 95.412712 -2.281964 2.074215 -18.903346 -0.420770 0.853298 1.106457 -4.943223 -1.660332 12.857814 66.991299 -68.021152 -106.070694 0.344724 11.063819 12.306653 -8.118211 -54.956130 -6.271169 -157.641833 80.023798 -147.986287 -6.839859 -15.931625 -7.017518 -0.613667 -1.428944 -0.579402 2.111182 -56.805214 10.408032 -104.261102 81.532190 -109.505340 3.314314 -4.935627 5.477431 1.138739 0.295793 0.359875
-48.393453 46.523718 7.039297 176.603487 -32.338081 -2.380437 1.892005 18.760091 1.107326 0.136172 2.189054 0.072193 0.002942 3.643776 0.108873 0.460961 16.393097 0.559021 0.011367 21.598499 -2.983338 0.851682 4.363828 -5.403879 1.483538 1.045936 -0.332714 6.071994 -5.229838 -15.998213 -46.867318 -57.951156 95.289880 -2.297503 2.044455 -18.905255 -0.409061 0.852218 1.122134 -4.936335 -1.651908 12.891615 67.046118 -68.002568 -106.118351 0.389894 11.006504 12.365084 -8.243660 -54.920908 -6.267027 -158.742893 80.168985 -149.097683 -6.765379 -15.785688 -7.116085 -0.676187 -1.397177 -0.556199 2.062331 -56.772450 10.445963 -104.529967 81.517838 -109.754309 3.354252 -4.985059 5.435564 1.142866 0.298281 0.361946
-48.398234 46.521833 7.021193 176.547167 -32.350200 -2.382874 1.867177 18.780789 1.111248 0.070552 2.198665 0.067733 0.106253 3.630443 0.111256 0.410480 16.403681 0.566547 0.017000 21.597164 -2.972498 0.858918 4.361252 -5.385911 1.481855 1.042000 -0.322255 6.084868 -5.289246 -15.972390 -46.796878 -57.950964 95.213136 -2.295497 2.059085 -18.888414 -0.424429 0.853559 1.140519 -4.915551 -1.654660 12.910238 67.085378 -67.982934 -106.150484 0.372371 11.009522 12.310779 -8.327685 -54.896778 -6.230160 -159.597897 80.291873 -149.940552 -6.752306 -15.614100 -7.217539 -0.686741 -1.379990 -0.500786 1.971268 -56.754860 10.522948 -104.823384 81.507161 -110.021383 3.413216 -5.046834 5.375323 1.128864 0.311083 0.374436
-48.401651 46.519449 7.003928 176.489054 -32.351841 -2.402634 1.851432 18.791496 1.137167 0.048106 2.202518 0.068249 0.101817 3.632987 0.113074 0.464990 16.395285 0.560781 -0.016558 21.604422 -2.937985 0.869204 4.357979 -5.371237 1.430786 1.048476 -0.292261 6.126840 -5.328825 -15.974435 -46.812693 -57.940468 95.194424 -2.291819 2.069804 -18.873707 -0.489149 0.860513 1.178074 -4.900301 -1.659972 12.926213 67.117845 -67.963271 -106.172787 0.368677 11.001168 12.282606 -8.375833 -54.888336 -6.162002 -160.174683 80.386259 -150.495782 -6.787441 -15.413181 -7.320033 -0.650057 -1.379373 -0.418403 1.853827 -56.748702 10.624106 -105.150976 81.505532 -110.317784 3.485266 -5.121174 5.313939 1.113586 0.333691 0.382160
-48.415441 46.518173 6.983568 176.474788 -32.364358 -2.389900 1.781087 18.817345 1.108644 0.044656 2.203999 0.069398 0.075300 3.639184 0.115568 0.435375 16.401122 0.567270 0.011587 21.596860 -2.940557 0.883293 4.352631 -5.357947 1.456191 1.045124 -0.301140 6.138458 -5.376205 -15.961494 -46.797763 -57.942901 95.170133 -2.288293 2.073034 -18.861744 -0.477800 0.846394 1.174720 -4.835670 -1.667611 12.904696 67.079922 -67.980465 -106.175821 0.370435 10.990186 12.271898 -8.372937 -54.878999 -6.195151 -160.531398 80.438915 -150.850511 -6.783052 -15.236542 -7.414171 -0.618620 -1.361003 -0.337746 1.733891 -56.727879 10.604212 -105.609570 81.564183 -110.761846 3.644926 -5.179440 5.284555 1.025563 0.333500 0.368298
